# xmcd CD database file
#
# Track frame offsets:
#	150
#	14498
#	28766
#	47548
#	65931
#	78347
#	95770
#	112733
#	125021
#	146627
#	163687
#	178419
#
# Disc length: 2645 seconds
#
# Revision: 0
# Processed by: cddbd v1.5.2PL0 Copyright (c) Steve Scherf et al.
# Submitted via: CDex 1.51
#
DISCID=ab0a530c
DTITLE=Tammy Cochran - Where I Am
DYEAR=2007
DGENRE=Country
TTITLE0=Tammy Cochran - So Long
TTITLE1=Tammy Cochran - And More
TTITLE2=Tammy Cochran - Nobody's Home
TTITLE3=Tammy Cochran - Gone
TTITLE4=Tammy Cochran - The Ride of Your Life
TTITLE5=Tammy Cochran - Where I Am
TTITLE6=Tammy Cochran - On My Side of the World
TTITLE7=Tammy Cochran - As Soon As I'm Over You
TTITLE8=Tammy Cochran - In Our House
TTITLE9=Tammy Cochran - High Wire
TTITLE10=Tammy Cochran - Long Way Down
TTITLE11=Tammy Cochran - Chemistry
EXTD=YEAR: 2007
EXTT0=
EXTT1=
EXTT2=
EXTT3=
EXTT4=
EXTT5=
EXTT6=
EXTT7=
EXTT8=
EXTT9=
EXTT10=
EXTT11=
PLAYORDER=
